<svg id="svg" version="1.1" xmlns="http://www.w3.org/2000/svg" xmlns:xlink="http://www.w3.org/1999/xlink" width="400" height="400" viewBox="0, 0, 400,400"><g id="svgg"><path id="path0" d="M0.000 200.000 L 0.000 400.000 200.000 400.000 L 400.000 400.000 400.000 200.000 L 400.000 0.000 200.000 0.000 L 0.000 0.000 0.000 200.000 M360.200 200.000 L 360.200 360.200 200.000 360.200 L 39.800 360.200 39.698 200.400 C 39.641 112.510,39.681 40.375,39.785 40.100 C 39.937 39.700,72.207 39.619,200.088 39.700 L 360.200 39.800 360.200 200.000 M141.600 158.443 C 139.062 159.439,139.219 156.918,139.209 196.931 L 139.200 233.262 140.369 234.431 C 141.358 235.420,141.855 235.600,143.596 235.600 C 148.358 235.600,148.399 235.458,148.406 218.920 C 148.409 211.484,148.544 205.194,148.706 204.942 C 148.913 204.620,153.065 204.430,162.800 204.297 C 180.437 204.057,183.922 203.207,189.424 197.800 C 200.764 186.658,196.553 165.231,182.000 160.020 C 181.230 159.745,180.240 159.379,179.800 159.208 C 176.795 158.039,144.288 157.388,141.600 158.443 M175.400 166.496 C 183.162 168.754,185.800 172.484,185.800 181.200 C 185.800 190.195,182.766 194.297,174.708 196.197 C 170.891 197.097,148.990 197.072,148.643 196.167 C 147.967 194.407,148.391 166.445,149.100 166.006 C 150.196 165.327,172.831 165.749,175.400 166.496 " stroke="none" fill="#fbfbfb" fill-rule="evenodd"></path><path id="path1" d="M40.000 200.000 L 40.000 360.000 200.000 360.000 L 360.000 360.000 360.000 200.000 L 360.000 40.000 200.000 40.000 L 40.000 40.000 40.000 200.000 M244.131 157.158 C 244.829 157.371,246.210 157.759,247.200 158.018 C 250.099 158.780,256.065 161.432,256.333 162.079 C 256.407 162.255,256.641 162.400,256.855 162.400 C 259.339 162.400,262.012 167.719,260.737 170.126 C 259.136 173.149,256.937 173.448,253.097 171.166 C 235.084 160.465,213.127 167.838,217.541 183.105 C 218.949 187.978,222.370 189.734,235.699 192.426 C 255.898 196.506,262.979 201.687,263.513 212.778 C 264.090 224.764,256.528 233.299,242.903 236.040 C 223.649 239.913,197.663 229.443,205.953 221.153 C 207.932 219.174,209.106 219.152,212.224 221.037 C 219.558 225.473,225.078 226.970,234.000 226.944 C 246.273 226.909,252.200 223.019,252.200 215.000 C 252.200 208.245,248.974 205.810,236.600 203.224 C 233.300 202.535,229.700 201.773,228.600 201.531 C 212.502 197.992,205.989 191.733,206.005 179.816 C 206.020 168.543,213.320 160.301,226.000 157.242 C 229.592 156.376,241.390 156.321,244.131 157.158 M178.000 158.158 C 193.663 161.522,201.148 177.643,193.992 192.600 C 189.338 202.328,183.221 204.775,162.600 205.156 L 149.400 205.400 149.200 219.400 C 148.978 234.907,148.954 235.050,146.314 235.970 C 143.137 237.077,140.172 236.170,138.954 233.718 C 137.882 231.559,137.560 164.917,138.605 161.324 C 139.724 157.475,139.035 157.603,158.600 157.601 C 171.473 157.600,176.008 157.731,178.000 158.158 M149.394 166.871 C 149.282 167.164,149.237 173.793,149.295 181.602 L 149.400 195.800 160.800 195.923 C 175.258 196.080,177.769 195.585,181.738 191.797 C 185.782 187.939,186.859 179.364,184.000 173.789 C 182.354 170.579,179.652 168.462,175.772 167.343 C 172.565 166.419,149.725 166.009,149.394 166.871 M267.913 246.943 C 267.988 250.098,267.871 251.873,267.564 252.243 C 267.176 252.711,261.676 252.800,233.201 252.800 L 199.300 252.800 199.050 251.550 C 198.732 249.961,198.734 244.087,199.053 242.898 L 199.294 241.996 233.547 242.098 L 267.800 242.200 267.913 246.943 " stroke="none" fill="#232423" fill-rule="evenodd"></path><path id="path2" d="M225.155 158.161 C 213.509 161.197,206.723 169.295,206.745 180.129 C 206.767 190.846,213.513 197.726,226.600 200.379 C 227.920 200.646,229.720 201.026,230.600 201.223 C 231.480 201.420,234.090 201.959,236.400 202.421 C 249.514 205.043,253.695 208.396,253.100 215.809 C 252.054 228.846,228.387 232.160,211.738 221.601 C 209.013 219.873,207.198 220.141,205.819 222.476 C 200.242 231.917,232.169 240.117,248.800 233.514 C 258.320 229.734,262.592 223.755,262.597 214.200 C 262.604 202.038,256.837 197.551,235.623 193.211 C 222.028 190.430,218.693 188.698,216.975 183.525 C 211.713 167.682,234.808 159.427,253.177 170.586 C 257.417 173.162,260.200 172.184,260.200 168.120 C 260.200 166.008,260.121 165.838,258.480 164.425 C 255.839 162.151,249.720 159.186,246.000 158.378 C 244.790 158.115,243.278 157.743,242.640 157.550 C 240.159 156.801,228.855 157.196,225.155 158.161 M199.600 247.400 L 199.600 252.005 233.300 251.902 L 267.000 251.800 267.000 247.400 L 267.000 243.000 233.300 242.898 L 199.600 242.795 199.600 247.400 " stroke="none" fill="#04f404" fill-rule="evenodd"></path><path id="path3" d="M39.785 40.100 C 39.681 40.375,39.641 112.510,39.698 200.400 L 39.800 360.200 200.000 360.200 L 360.200 360.200 360.200 200.000 L 360.200 39.800 200.088 39.700 C 72.207 39.619,39.937 39.700,39.785 40.100 M360.000 200.000 L 360.000 360.000 200.000 360.000 L 40.000 360.000 40.000 200.000 L 40.000 40.000 200.000 40.000 L 360.000 40.000 360.000 200.000 M140.516 158.386 C 137.933 159.961,137.965 159.437,138.089 197.840 C 138.195 230.573,138.236 232.272,138.954 233.718 C 140.172 236.170,143.137 237.077,146.314 235.970 C 148.954 235.050,148.978 234.907,149.200 219.400 L 149.400 205.400 162.600 205.156 C 183.221 204.775,189.338 202.328,193.992 192.600 C 200.437 179.129,194.594 163.534,181.400 158.992 C 176.478 157.298,143.112 156.803,140.516 158.386 M176.093 158.448 C 177.692 158.695,179.360 159.037,179.800 159.208 C 180.240 159.379,181.230 159.745,182.000 160.020 C 196.553 165.231,200.764 186.658,189.424 197.800 C 183.922 203.207,180.437 204.057,162.800 204.297 C 153.065 204.430,148.913 204.620,148.706 204.942 C 148.544 205.194,148.409 211.484,148.406 218.920 C 148.399 235.458,148.358 235.600,143.596 235.600 C 141.855 235.600,141.358 235.420,140.369 234.431 L 139.200 233.262 139.209 196.931 C 139.219 156.918,139.062 159.439,141.600 158.443 C 143.033 157.881,172.441 157.885,176.093 158.448 M149.100 166.006 C 148.391 166.445,147.967 194.407,148.643 196.167 C 148.990 197.072,170.891 197.097,174.708 196.197 C 182.766 194.297,185.800 190.195,185.800 181.200 C 185.800 172.484,183.162 168.754,175.400 166.496 C 172.831 165.749,150.196 165.327,149.100 166.006 M175.772 167.343 C 187.706 170.785,189.445 188.543,178.400 194.185 C 175.167 195.837,172.956 196.055,160.800 195.923 L 149.400 195.800 149.295 181.602 C 149.237 173.793,149.282 167.164,149.394 166.871 C 149.725 166.009,172.565 166.419,175.772 167.343 " stroke="none" fill="#8c8c8c" fill-rule="evenodd"></path><path id="path4" d="M229.400 156.642 C 215.639 158.068,206.021 167.595,206.005 179.816 C 205.989 191.733,212.502 197.992,228.600 201.531 C 229.700 201.773,233.300 202.535,236.600 203.224 C 248.974 205.810,252.200 208.245,252.200 215.000 C 252.200 223.019,246.273 226.909,234.000 226.944 C 225.078 226.970,219.558 225.473,212.224 221.037 C 205.642 217.057,201.114 224.661,207.198 229.477 C 219.555 239.260,246.616 239.164,257.000 229.300 C 264.592 222.088,266.022 209.026,259.902 202.800 C 254.553 197.358,249.592 195.232,235.699 192.426 C 222.370 189.734,218.949 187.978,217.541 183.105 C 213.127 167.838,235.084 160.465,253.097 171.166 C 256.937 173.448,259.136 173.149,260.737 170.126 C 262.012 167.719,259.339 162.400,256.855 162.400 C 256.641 162.400,256.407 162.255,256.333 162.079 C 256.065 161.432,250.099 158.780,247.200 158.018 C 246.210 157.759,244.829 157.371,244.131 157.158 C 242.771 156.743,232.052 156.367,229.400 156.642 M242.640 157.550 C 243.278 157.743,244.790 158.115,246.000 158.378 C 249.720 159.186,255.839 162.151,258.480 164.425 C 260.121 165.838,260.200 166.008,260.200 168.120 C 260.200 172.184,257.417 173.162,253.177 170.586 C 234.808 159.427,211.713 167.682,216.975 183.525 C 218.693 188.698,222.028 190.430,235.623 193.211 C 256.837 197.551,262.604 202.038,262.597 214.200 C 262.592 223.755,258.320 229.734,248.800 233.514 C 236.780 238.286,215.228 235.649,207.126 228.414 C 202.547 224.325,206.597 218.341,211.738 221.601 C 225.520 230.342,246.701 229.698,251.770 220.384 C 256.621 211.471,251.453 205.431,236.400 202.421 C 234.090 201.959,231.480 201.420,230.600 201.223 C 229.720 201.026,227.920 200.646,226.600 200.379 C 213.513 197.726,206.767 190.846,206.745 180.129 C 206.723 169.295,213.509 161.197,225.155 158.161 C 228.855 157.196,240.159 156.801,242.640 157.550 M199.053 242.898 C 198.734 244.087,198.732 249.961,199.050 251.550 L 199.300 252.800 233.201 252.800 C 261.676 252.800,267.176 252.711,267.564 252.243 C 267.871 251.873,267.988 250.098,267.913 246.943 L 267.800 242.200 233.547 242.098 L 199.294 241.996 199.053 242.898 M267.000 247.400 L 267.000 251.800 233.300 251.902 L 199.600 252.005 199.600 247.400 L 199.600 242.795 233.300 242.898 L 267.000 243.000 267.000 247.400 " stroke="none" fill="#157015" fill-rule="evenodd"></path></g></svg>